<?xml version="1.0" standalone="no"?>
<!DOCTYPE svg PUBLIC "-//W3C//DTD SVG 20010904//EN"
 "http://www.w3.org/TR/2001/REC-SVG-20010904/DTD/svg10.dtd">
<svg version="1.0" xmlns="http://www.w3.org/2000/svg"
 width="300.000000pt" height="300.000000pt" viewBox="0 0 300.000000 300.000000"
 preserveAspectRatio="xMidYMid meet">
<metadata>
Created by potrace 1.11, written by Peter Selinger 2001-2013
</metadata>
<g transform="translate(0.000000,300.000000) scale(0.100000,-0.100000)"
fill="#000000" stroke="none">
<path d="M1060 2986 c0 -12 -27 -27 -55 -30 -12 -1 -26 -16 -41 -41 -6 -11
-26 -24 -45 -29 -19 -5 -38 -16 -42 -23 -4 -7 -15 -13 -23 -13 -9 0 -29 -13
-46 -30 -16 -16 -34 -30 -39 -30 -6 0 -7 -4 -4 -10 3 -5 -1 -10 -10 -10 -21 0
-45 -24 -45 -44 0 -8 -4 -17 -8 -20 -5 -3 -24 -36 -42 -73 -35 -71 -42 -124
-28 -233 6 -48 28 -132 38 -140 26 -24 29 -46 44 -275 2 -33 14 -82 25 -108
11 -27 23 -60 25 -74 7 -34 15 -41 27 -23 7 10 8 74 4 177 -6 159 -6 162 19
211 19 38 26 66 25 109 -1 109 17 150 101 230 82 78 134 104 198 99 20 -2 48
1 62 5 14 4 61 10 105 13 44 2 92 9 108 15 15 6 27 7 27 3 0 -4 5 0 10 8 8 12
10 10 10 -8 0 -13 4 -20 10 -17 6 3 14 -5 19 -18 11 -29 31 -45 31 -25 0 9 3
9 10 -2 9 -13 10 -13 11 0 0 8 8 -1 16 -20 12 -28 17 -31 22 -18 6 16 9 15 35
-7 16 -14 35 -25 43 -25 8 0 23 -9 35 -20 12 -10 25 -17 30 -14 5 3 13 -8 19
-25 6 -17 19 -35 28 -40 19 -11 41 -85 43 -151 2 -46 -19 -109 -37 -111 -94
-6 -187 -29 -215 -54 -14 -12 -33 -25 -42 -28 -10 -3 -20 -19 -23 -34 -4 -15
-14 -45 -22 -65 -12 -28 -14 -49 -8 -85 5 -27 9 -67 9 -90 0 -23 3 -40 5 -37
6 6 31 -66 31 -91 0 -11 7 -31 16 -43 9 -13 11 -22 4 -22 -6 0 -25 -16 -42
-36 -18 -20 -43 -40 -57 -45 -30 -12 -20 -22 38 -38 68 -19 80 -21 106 -11 16
6 29 4 41 -5 18 -13 18 -14 -3 -8 -14 3 -23 1 -23 -6 0 -6 -17 -11 -37 -11
-21 -1 -56 -8 -78 -16 -22 -9 -53 -19 -70 -23 l-30 -8 35 -7 c19 -4 59 -5 88
-2 42 4 54 2 59 -10 5 -15 7 -15 15 0 11 19 38 22 38 4 0 -22 -17 -41 -31 -36
-8 3 -20 -8 -29 -26 -8 -17 -30 -38 -47 -46 -18 -8 -33 -23 -33 -32 0 -10 -4
-18 -10 -18 -5 0 -10 -5 -10 -11 0 -5 4 -8 8 -5 5 3 23 8 41 11 19 3 49 12 68
20 40 17 67 20 41 4 -17 -9 -26 -39 -12 -39 21 0 76 48 80 70 0 3 7 21 16 40
35 78 41 97 43 135 1 26 -5 46 -17 59 -10 11 -18 28 -18 38 0 36 -42 102 -97
152 -50 46 -53 50 -34 58 18 6 19 11 11 34 -6 15 -8 35 -5 44 8 24 -14 70 -30
63 -17 -6 -14 22 4 40 10 9 11 8 6 -5 -12 -30 24 -21 58 15 23 24 31 28 35 17
7 -24 34 -40 66 -40 24 0 28 -3 16 -10 -11 -7 -4 -8 23 -4 42 6 80 -3 72 -17
-4 -5 14 -14 39 -21 47 -12 64 -38 51 -77 -3 -10 1 -47 9 -82 11 -45 12 -65 4
-70 -6 -4 -7 -12 -4 -18 4 -6 2 -11 -3 -11 -6 0 -11 -6 -11 -13 0 -8 -12 -24
-26 -38 -24 -22 -25 -29 -20 -79 7 -59 -12 -138 -52 -217 -29 -55 -48 -70 -73
-55 -17 11 -21 9 -29 -13 -6 -15 -14 -23 -20 -20 -5 3 -9 -8 -8 -27 1 -36 -16
-78 -32 -78 -6 0 -10 -7 -10 -15 0 -15 -16 -19 -52 -16 -10 1 -18 -4 -18 -13
0 -16 -44 -23 -53 -8 -2 4 -2 2 -1 -5 2 -6 -10 -15 -26 -18 -16 -4 -28 -12
-27 -18 1 -7 -8 -11 -23 -9 -14 1 -38 4 -55 6 -16 1 -37 6 -46 10 -10 4 -24 6
-32 4 -13 -3 -115 56 -128 74 -3 5 -11 3 -17 -5 -10 -11 -6 -20 16 -44 15 -16
39 -42 54 -59 80 -88 147 -128 239 -140 71 -9 180 -48 191 -67 6 -11 3 -20
-10 -29 -10 -7 -22 -25 -25 -39 -4 -15 -21 -40 -37 -56 -29 -28 -30 -32 -15
-47 9 -9 21 -16 26 -16 15 0 79 37 73 42 -2 3 7 13 21 22 35 23 65 54 65 66 0
6 7 10 15 10 8 0 15 6 15 14 0 7 11 21 25 30 23 15 26 15 55 -14 37 -36 38
-64 3 -115 -16 -22 -38 -60 -50 -85 l-21 -45 24 -9 c13 -6 24 -16 24 -23 0 -7
5 -13 10 -13 6 0 10 5 10 10 0 6 4 10 9 10 5 0 27 18 49 40 21 22 44 40 49 40
6 0 16 7 23 15 7 8 17 15 21 15 15 0 32 -51 32 -92 0 -21 4 -38 8 -38 5 0 6
-13 3 -29 -6 -27 -4 -28 21 -23 33 6 28 -7 -13 -36 l-27 -20 -2 32 c-5 109 -5
132 -2 145 7 24 -17 22 -29 -3 -14 -32 -120 -107 -216 -152 -67 -32 -90 -37
-169 -42 -88 -4 -95 -3 -160 28 -52 24 -71 39 -81 63 -18 42 -79 123 -152 200
-138 146 -218 276 -229 375 -4 34 -10 62 -14 62 -4 0 -30 -44 -58 -97 -42 -79
-58 -101 -85 -112 -18 -8 -55 -36 -83 -62 -27 -26 -72 -60 -100 -77 -27 -16
-110 -66 -184 -111 -73 -44 -138 -81 -143 -81 -28 0 -183 -108 -255 -177 l-83
-79 0 -122 0 -122 1500 0 1500 0 -2 302 -3 302 -40 12 c-22 6 -74 28 -115 49
-105 53 -269 125 -305 134 -17 5 -66 24 -110 43 -44 19 -102 44 -130 55 -44
18 -57 30 -110 110 -57 86 -138 190 -160 205 -18 13 -24 9 -20 -14 3 -13 1
-18 -5 -12 -9 9 -17 48 -20 99 -2 30 -2 30 -11 5 -11 -31 -5 62 12 171 14 98
20 107 54 89 18 -10 33 -11 52 -4 29 10 45 45 72 154 8 30 20 64 27 75 9 12
14 48 14 97 0 65 -3 81 -20 98 -11 11 -24 20 -29 20 -13 0 -6 154 9 210 7 25
13 92 14 150 1 58 8 119 15 135 7 17 12 37 12 45 -1 33 -15 86 -27 106 -8 11
-11 23 -8 27 8 8 -34 77 -47 77 -5 0 -9 7 -9 15 0 24 -76 99 -91 90 -8 -5 -10
-4 -5 4 4 6 -6 24 -23 42 -17 17 -31 34 -31 37 0 4 -23 18 -50 31 -28 14 -50
29 -50 33 0 4 -180 8 -400 8 -334 0 -400 -2 -400 -14z m712 -941 c22 -3 43 -7
46 -10 13 -13 -16 -20 -96 -22 -48 -1 -98 -5 -112 -7 -14 -3 -19 -3 -12 0 6 3
10 10 7 15 -4 5 2 6 11 2 12 -4 15 -3 10 5 -5 8 2 12 21 13 15 0 37 4 48 8 11
5 23 6 28 4 4 -2 26 -6 49 -8z m-305 -1947 c2 -21 -1 -38 -7 -38 -5 0 -10 11
-10 23 0 14 -6 24 -14 24 -16 0 -17 -18 -1 -29 6 -5 5 -8 -3 -8 -8 0 -10 -5
-6 -12 4 -8 3 -10 -2 -5 -5 5 -10 13 -10 18 -1 5 -2 10 -4 12 -1 1 -3 11 -5
22 -5 23 12 36 40 33 15 -2 20 -12 22 -40z"/>
<path d="M1040 2079 c-19 -4 -50 -6 -68 -2 -18 3 -38 1 -45 -4 -6 -6 -23 -13
-37 -16 -30 -7 -68 -63 -48 -70 7 -2 23 2 34 10 16 10 66 14 183 16 148 2 161
3 161 20 0 10 -4 16 -9 12 -6 -3 -18 3 -28 13 -21 23 -93 33 -143 21z m160
-49 c0 -5 -5 -10 -11 -10 -5 0 -7 5 -4 10 3 6 8 10 11 10 2 0 4 -4 4 -10z"/>
<path d="M1091 1982 c-25 -3 -31 -6 -20 -13 11 -7 11 -9 -4 -9 -21 0 -94 -36
-119 -58 -13 -11 -15 -18 -7 -28 12 -15 56 0 76 26 10 13 13 13 30 -3 33 -29
82 -21 96 15 5 14 11 16 32 8 33 -13 32 1 -2 23 l-28 18 28 -6 c15 -3 27 -1
27 4 0 12 -68 27 -109 23z"/>
<path d="M944 1935 c-10 -8 -14 -15 -8 -15 6 0 17 7 24 15 16 19 9 19 -16 0z"/>
<path d="M1285 1540 c-4 -6 8 -10 30 -10 22 0 34 4 30 10 -3 6 -17 10 -30 10
-13 0 -27 -4 -30 -10z"/>
<path d="M1757 1484 c-8 -8 1 -24 14 -24 5 0 9 7 9 15 0 15 -12 20 -23 9z"/>
<path d="M1224 1402 c-46 -2 -66 -8 -79 -22 -17 -19 -17 -20 2 -20 33 0 83
-21 77 -32 -4 -6 -1 -9 7 -6 7 2 14 15 14 29 0 22 5 24 48 27 26 2 47 7 47 11
0 12 -43 17 -116 13z"/>
<path d="M1250 1302 c0 -14 39 -41 67 -47 23 -4 24 -4 8 4 -11 5 -29 18 -39
30 -19 21 -36 27 -36 13z"/>
<path d="M1435 1290 c-3 -6 1 -7 9 -4 18 7 21 14 7 14 -6 0 -13 -4 -16 -10z"/>
<path d="M1440 1161 c0 -6 5 -13 10 -16 6 -3 10 1 10 9 0 9 -4 16 -10 16 -5 0
-10 -4 -10 -9z"/>
<path d="M1550 1060 c0 -5 5 -10 10 -10 6 0 10 5 10 10 0 6 -4 10 -10 10 -5 0
-10 -4 -10 -10z"/>
</g>
</svg>
